<svg id="svg" xmlns="http://www.w3.org/2000/svg" xmlns:xlink="http://www.w3.org/1999/xlink" width="400"
    height="276.65198237885465" viewBox="0, 0, 400,276.65198237885465">
    <g id="svgg">
        <path id="path0"
            d="M244.549 42.377 C 242.377 43.660,241.800 45.562,242.507 49.099 C 246.721 70.169,176.178 163.788,130.817 197.324 C 123.806 202.508,123.322 205.420,130.050 201.941 C 158.400 187.281,211.915 131.191,236.753 90.103 C 254.767 60.305,259.099 33.782,244.549 42.377 M120.946 53.350 C 116.873 56.328,118.963 62.310,123.649 61.085 C 139.094 57.046,134.718 105.704,116.407 141.615 C 87.879 197.563,18.086 252.413,30.719 208.956 C 35.675 191.907,55.960 154.119,76.759 123.188 C 87.846 106.702,96.875 91.866,96.824 90.219 C 96.749 87.779,96.222 87.955,93.977 91.172 C 92.462 93.344,84.442 103.652,76.155 114.080 C 18.568 186.541,2.287 241.463,41.833 229.860 C 87.963 216.326,144.370 139.839,144.937 90.055 C 145.247 62.805,133.207 44.385,120.946 53.350 M345.374 122.115 C 345.374 123.374,346.224 125.255,347.262 126.293 C 348.605 127.635,347.731 129.297,344.240 132.043 C 329.827 143.381,321.803 161.511,329.400 165.577 C 344.992 173.922,359.374 159.141,357.074 137.134 C 356.049 127.329,356.225 126.670,360.374 124.779 C 367.098 121.716,365.579 119.433,358.723 122.298 C 353.521 124.472,352.556 124.475,351.730 122.322 C 350.528 119.189,345.374 119.022,345.374 122.115 M352.416 142.395 C 352.406 155.022,347.348 162.115,338.352 162.115 C 327.962 162.115,328.943 157.563,343.200 139.627 C 350.315 130.675,352.425 131.308,352.416 142.395 M226.283 144.744 C 220.550 148.758,210.308 156.553,203.524 162.067 C 196.740 167.580,186.839 175.000,181.521 178.556 C 176.204 182.112,173.087 185.022,174.594 185.022 C 178.652 185.022,196.829 173.593,220.309 156.278 C 242.730 139.745,244.029 139.435,249.339 149.360 C 253.591 157.308,255.785 157.693,286.784 155.935 C 304.489 154.931,308.370 154.225,308.370 152.005 C 308.370 149.649,305.918 149.487,289.427 150.752 C 256.178 153.303,257.269 153.471,251.513 144.934 C 244.895 135.120,240.080 135.084,226.283 144.744 "
            stroke="none" fill="#fff" fill-rule="evenodd"></path>
    </g>
</svg>